# File created by Blade
# Date/Time:  Thu Sep 25 17:43:48 2014
# Frame Rate: 120.000 fps
#------------------------------------------------------
:FULLY-SPECIFIED
:DEGREES
251
root -39.264541 33.486449 -2.281982 -354.317969 0.618883 3.507782
Spine -2.105234 6.663583 8.432106
Head -15.816098 7.716298 -7.501173
LeftShoulder -10.747467 22.237029 4.252114
LeftArm 34.543616 35.407604 -57.797522
LeftForeArm -3.673249 0.000000 20.428618
LeftHand -22.333397 -0.000000 -3.350149
LeftHandThumb1 -26.253704 0.000000 33.147579
RightShoulder -16.017147 5.965475 -25.930790
RightArm -15.256672 -46.809226 94.441627
RightForeArm -10.129674 -0.000000 34.708817
RightHand -3.043709 -0.000000 14.300477
RightHandThumb1 -24.326973 -0.000000 -32.862282
LeftUpLeg -9.508974 4.944581 1.766163
LeftLeg 12.987676 -0.000000 -0.000000
LeftFoot -7.247194 23.689453 340.615313
LeftToeBase -6.540202 -0.000000 0.000000
RightUpLeg -2.003173 -22.380031 -1.091696
RightLeg 10.431557 -0.000000 -0.000000
RightFoot -5.508673 -9.672206 4.774863
RightToeBase -6.948153 -0.000000 0.000000
252
root -39.275370 33.427268 -2.334463 -354.220247 1.383170 3.405841
Spine -2.086149 6.894424 8.677891
Head -15.855742 7.751286 -7.564454
LeftShoulder -10.782660 22.487718 4.238090
LeftArm 34.550539 34.910270 -57.683776
LeftForeArm -3.783199 -0.000000 20.545129
LeftHand -22.463382 -0.000000 -2.917106
LeftHandThumb1 -26.253704 0.000000 33.147579
RightShoulder -15.936720 5.978265 -26.021905
RightArm -15.239257 -46.210783 94.117467
RightForeArm -10.343013 -0.000000 34.438427
RightHand -2.963518 -0.000000 14.393691
RightHandThumb1 -24.326973 -0.000000 -32.862282
LeftUpLeg -9.695632 4.582016 1.834328
LeftLeg 12.817048 -0.000000 -0.000000
LeftFoot -8.286741 23.822274 340.251750
LeftToeBase -6.058006 -0.000000 0.000000
RightUpLeg -1.761342 -22.340798 -0.880633
RightLeg 9.878764 -0.000000 -0.000000
RightFoot -6.063698 -10.013509 4.865374
RightToeBase -6.224560 -0.000000 0.000000
253
root -39.282351 33.366060 -2.387935 -354.109404 2.144793 3.341182
Spine -2.048522 7.020764 8.879701
Head -16.039033 7.901505 -7.640806
LeftShoulder -10.898176 22.608095 4.192555
LeftArm 34.379662 34.455485 -57.657773
LeftForeArm -4.011703 0.000000 20.726802
LeftHand -22.629841 -0.000000 -2.481010
LeftHandThumb1 -26.253704 0.000000 33.147579
RightShoulder -15.827350 6.084766 -26.106139
RightArm -15.254144 -45.501101 93.774950
RightForeArm -10.559005 -0.000000 34.229600
RightHand -3.047672 -0.000000 14.391194
RightHandThumb1 -24.326973 -0.000000 -32.862282
LeftUpLeg -9.890277 4.099339 1.886482
LeftLeg 12.603322 -0.000000 -0.000000
LeftFoot -9.559125 24.129638 340.260362
LeftToeBase -5.077337 -0.000000 0.000000
RightUpLeg -1.578731 -22.512433 -0.644781
RightLeg 9.340278 -0.000000 -0.000000
RightFoot -6.670839 -10.514364 4.927791
RightToeBase -5.511183 -0.000000 0.000000
254
root -39.281182 33.302586 -2.434171 -353.999389 2.851259 3.305802
Spine -2.056911 7.197453 9.020991
Head -16.092272 8.037937 -7.672775
LeftShoulder -10.992515 22.785344 4.178827
LeftArm 34.163525 33.968048 -57.746992
LeftForeArm -4.140874 -0.000000 20.892949
LeftHand -22.700320 -0.000000 -1.889914
LeftHandThumb1 -26.253704 0.000000 33.147579
RightShoulder -15.782631 6.069591 -26.101546
RightArm -15.145435 -45.254281 93.302995
RightForeArm -10.464453 -0.000000 34.020895
RightHand -3.105027 -0.000000 14.241069
RightHandThumb1 -24.326973 -0.000000 -32.862282
LeftUpLeg -9.986438 3.595512 1.934052
LeftLeg 12.210323 -0.000000 -0.000000
LeftFoot -10.932367 24.059212 339.001343
LeftToeBase -5.793690 -0.000000 0.000000
RightUpLeg -1.391083 -22.828360 -0.416833
RightLeg 8.748224 -0.000000 -0.000000
RightFoot -7.245712 -11.089691 4.844048
RightToeBase -4.896557 -0.000000 0.000000
255
root -39.269673 33.241196 -2.488628 -353.857888 3.587009 3.361760
Spine -2.088322 7.314413 9.070847
Head -16.114200 8.205503 -7.675941
LeftShoulder -11.110432 22.999906 4.105797
LeftArm 34.001442 33.439891 -57.781547
LeftForeArm -4.329782 -0.000000 21.049042
LeftHand -22.878822 -0.000000 -1.413820
LeftHandThumb1 -26.253704 0.000000 33.147579
RightShoulder -15.725563 6.020773 -26.101509
RightArm -14.917760 -44.765823 92.818661
RightForeArm -10.569845 0.000000 33.676587
RightHand -3.080881 -0.000000 14.278605
RightHandThumb1 -24.326973 -0.000000 -32.862282
LeftUpLeg -10.182207 3.020730 1.867696
LeftLeg 11.930224 -0.000000 -0.000000
LeftFoot -12.034585 24.383353 338.745101
LeftToeBase -5.786780 -0.000000 0.000000
RightUpLeg -1.274955 -23.314938 -0.261386
RightLeg 8.177527 -0.000000 -0.000000
RightFoot -7.840440 -11.678065 4.755774
RightToeBase -4.216659 -0.000000 0.000000
256
root -39.257207 33.178632 -2.539967 -353.713428 4.290008 3.457999
Spine -2.136571 7.509265 9.061449
Head -16.080383 8.361148 -7.686631
LeftShoulder -11.294655 23.263156 3.848218
LeftArm 34.570206 34.128881 -56.199549
LeftForeArm -6.069943 -0.000000 21.596105
LeftHand -23.186044 -0.000000 -0.052021
LeftHandThumb1 -26.253704 0.000000 33.147579
RightShoulder -15.727789 6.003130 -26.138956
RightArm -14.821435 -44.176168 92.472829
RightForeArm -10.720992 -0.000000 33.311589
RightHand -3.128065 -0.000000 14.259860
RightHandThumb1 -24.326973 -0.000000 -32.862282
LeftUpLeg -10.445640 2.690082 1.754601
LeftLeg 11.736830 -0.000000 -0.000000
LeftFoot -12.805551 24.492339 338.595486
LeftToeBase -6.074100 -0.000000 0.000000
RightUpLeg -1.158840 -23.929179 -0.127377
RightLeg 7.575891 -0.000000 -0.000000
RightFoot -8.416027 -12.301941 4.478149
RightToeBase -3.510392 -0.000000 0.000000
257
root -39.228304 33.117068 -2.600202 -353.496300 4.958458 3.633818
Spine -2.229039 7.568581 8.978313
Head -16.102556 8.609573 -7.730359
LeftShoulder -11.722061 23.565419 3.445396
LeftArm 35.472360 35.113136 -54.088405
LeftForeArm -8.662319 -0.000000 22.129881
LeftHand -23.275430 -0.000000 0.919232
LeftHandThumb1 -26.253704 0.000000 33.147579
RightShoulder -15.717696 6.025048 -26.131446
RightArm -14.624718 -44.147263 92.037635
RightForeArm -10.555922 -0.000000 32.955926
RightHand -3.232340 -0.000000 14.137563
RightHandThumb1 -24.326973 -0.000000 -32.862282
LeftUpLeg -10.738361 2.192610 1.581104
LeftLeg 11.467139 -0.000000 -0.000000
LeftFoot -13.415572 24.644927 338.240839
LeftToeBase -6.499125 -0.000000 0.000000
RightUpLeg -1.177984 -24.517386 -0.077980
RightLeg 7.085575 -0.000000 -0.000000
RightFoot -9.049068 -12.812399 4.279688
RightToeBase -2.782083 -0.000000 0.000000
258
root -39.205028 33.056473 -2.654560 -353.325530 5.654885 3.782702
Spine -2.309259 7.669818 8.880461
Head -15.998074 8.852898 -7.604275
LeftShoulder -11.759347 23.687775 3.375332
LeftArm 34.994636 34.659919 -54.312738
LeftForeArm -8.323776 0.000000 22.470561
LeftHand -24.141912 0.000000 2.334744
LeftHandThumb1 -26.253704 0.000000 33.147579
RightShoulder -15.717863 6.013883 -26.091820
RightArm -14.461667 -43.904683 91.658825
RightForeArm -10.676221 -0.000000 32.502202
RightHand -3.156180 -0.000000 14.145541
RightHandThumb1 -24.326973 -0.000000 -32.862282
LeftUpLeg -10.944907 1.637060 1.495825
LeftLeg 11.114793 -0.000000 -0.000000
LeftFoot -13.815374 24.618124 338.211293
LeftToeBase -6.088397 -0.000000 0.000000
RightUpLeg -1.122059 -25.187598 -0.036138
RightLeg 6.580114 -0.000000 -0.000000
RightFoot -9.604219 -13.213956 3.935342
RightToeBase -2.093690 -0.000000 0.000000
259
root -39.172098 32.998533 -2.711478 -353.151365 6.278930 3.996826
Spine -2.387841 7.798934 8.726367
Head -15.796255 9.165761 -7.569446
LeftShoulder -11.796309 23.999756 3.290757
LeftArm 34.520158 33.820598 -54.776507
LeftForeArm -8.140528 -0.000000 22.729279
LeftHand -24.165781 -0.000000 2.798701
LeftHandThumb1 -26.253704 0.000000 33.147579
RightShoulder -15.680449 6.025309 -26.071771
RightArm -14.309504 -43.599871 91.299252
RightForeArm -10.661223 -0.000000 32.061501
RightHand -3.214548 -0.000000 14.220109
RightHandThumb1 -24.326973 -0.000000 -32.862282
LeftUpLeg -11.155548 1.103798 1.359462
LeftLeg 10.833913 -0.000000 -0.000000
LeftFoot -14.213852 24.406931 338.036195
LeftToeBase -5.446238 -0.000000 0.000000
RightUpLeg -1.107689 -25.797074 -0.101731
RightLeg 6.166694 -0.000000 -0.000000
RightFoot -10.194222 -13.501121 3.737298
RightToeBase -1.495607 -0.000000 0.000000
